<?xml version="1.0" encoding="UTF-8" standalone="no"?><svg xmlns="http://www.w3.org/2000/svg" xmlns:xlink="http://www.w3.org/1999/xlink" contentScriptType="application/ecmascript" contentStyleType="text/css" height="780px" preserveAspectRatio="none" style="width:1554px;height:780px;background:#FFFFFF;" version="1.1" viewBox="0 0 1554 780" width="1554px" zoomAndPan="magnify"><defs><filter height="300%" id="fu7wdvvr43xs0" width="300%" x="-1" y="-1"><feGaussianBlur result="blurOut" stdDeviation="2.0"/><feColorMatrix in="blurOut" result="blurOut2" type="matrix" values="0 0 0 0 0 0 0 0 0 0 0 0 0 0 0 0 0 0 .4 0"/><feOffset dx="4.0" dy="4.0" in="blurOut2" result="blurOut3"/><feBlend in="SourceGraphic" in2="blurOut3" mode="normal"/></filter></defs><g><!--MD5=[5e9a57a3377260e11f4c161d717e577e]
cluster builtins--><polygon fill="#FFFFFF" filter="url(#fu7wdvvr43xs0)" points="16,146.5,78,146.5,85,168.9883,156,168.9883,156,245.5,16,245.5,16,146.5" style="stroke:#000000;stroke-width:1.5;"/><line style="stroke:#000000;stroke-width:1.5;" x1="16" x2="85" y1="168.9883" y2="168.9883"/><text fill="#000000" font-family="sans-serif" font-size="14" font-weight="bold" lengthAdjust="spacing" textLength="56" x="20" y="162.0352">builtins</text><!--MD5=[9337302705db7c49fd58a3d6e23dcdae]
cluster md.python.dict--><polygon fill="#FFFFFF" filter="url(#fu7wdvvr43xs0)" points="1295,140,1407,140,1414,162.4883,1537,162.4883,1537,446,1295,446,1295,140" style="stroke:#000000;stroke-width:1.5;"/><line style="stroke:#000000;stroke-width:1.5;" x1="1295" x2="1414" y1="162.4883" y2="162.4883"/><text fill="#000000" font-family="sans-serif" font-size="14" font-weight="bold" lengthAdjust="spacing" textLength="106" x="1299" y="155.5352">md.python.dict</text><!--MD5=[e2d366466281fd4798d78288f9c6b5bb]
cluster md.persistence--><polygon fill="#FFFFFF" filter="url(#fu7wdvvr43xs0)" points="180,6,294,6,301,28.4883,1271,28.4883,1271,773,180,773,180,6" style="stroke:#000000;stroke-width:1.5;"/><line style="stroke:#000000;stroke-width:1.5;" x1="180" x2="301" y1="28.4883" y2="28.4883"/><text fill="#000000" font-family="sans-serif" font-size="14" font-weight="bold" lengthAdjust="spacing" textLength="108" x="184" y="21.5352">md.persistence</text><!--MD5=[26afaa6943c9e0f56a262483a2ac1d31]
class builtins.RuntimeError--><rect codeLine="11" fill="#EBEBEB" filter="url(#fu7wdvvr43xs0)" height="48" id="builtins.RuntimeError" style="stroke:#000000;stroke-width:1.5;" width="108" x="32" y="181.5"/><ellipse cx="47" cy="197.5" fill="#FFA659" rx="11" ry="11" style="stroke:#000000;stroke-width:1.0;"/><path d="M51.5107,204 L48.979,204 L46.6133,199.8994 L44.2559,204 L41.7241,204 L45.3599,197.708 L41.8237,191.6069 L44.3555,191.6069 L46.6133,195.5498 L48.8794,191.6069 L51.4111,191.6069 L47.8916,197.708 Z " fill="#000000"/><text fill="#000000" font-family="sans-serif" font-size="12" lengthAdjust="spacing" textLength="76" x="61" y="202.0352">RuntimeError</text><line style="stroke:#000000;stroke-width:1.5;" x1="33" x2="139" y1="213.5" y2="213.5"/><line style="stroke:#000000;stroke-width:1.5;" x1="33" x2="139" y1="221.5" y2="221.5"/><!--MD5=[ef59c8961336a9c238f152b2ab5602c1]
class md.python.dict.MergeDictionaryInterface--><rect codeLine="15" fill="#EBEBEB" filter="url(#fu7wdvvr43xs0)" height="60.9551" id="md.python.dict.MergeDictionaryInterface" style="stroke:#000000;stroke-width:1.5;" width="210" x="1311" y="175"/><ellipse cx="1341.75" cy="191" fill="#B4A7E5" rx="11" ry="11" style="stroke:#000000;stroke-width:1.0;"/><path d="M1338.1777,187.2651 L1338.1777,185.1069 L1345.5571,185.1069 L1345.5571,187.2651 L1343.0918,187.2651 L1343.0918,195.3418 L1345.5571,195.3418 L1345.5571,197.5 L1338.1777,197.5 L1338.1777,195.3418 L1340.6431,195.3418 L1340.6431,187.2651 Z " fill="#000000"/><text fill="#000000" font-family="sans-serif" font-size="12" font-style="italic" lengthAdjust="spacing" textLength="143" x="1359.25" y="195.5352">MergeDictionaryInterface</text><line style="stroke:#000000;stroke-width:1.5;" x1="1312" x2="1520" y1="207" y2="207"/><line style="stroke:#000000;stroke-width:1.5;" x1="1312" x2="1520" y1="215" y2="215"/><ellipse cx="1322" cy="226" fill="#84BE84" rx="3" ry="3" style="stroke:#038048;stroke-width:1.0;"/><text fill="#000000" font-family="sans-serif" font-size="11" lengthAdjust="spacing" textLength="184" x="1331" y="229.6348">merge(left: dict, right: dict) -&gt; dict</text><!--MD5=[1e1409f3c08bda16584d4ca06ff65114]
class md.python.dict.DefaultMergeDictionary--><rect codeLine="18" fill="#EBEBEB" filter="url(#fu7wdvvr43xs0)" height="60.9551" id="md.python.dict.DefaultMergeDictionary" style="stroke:#000000;stroke-width:1.5;" width="210" x="1311" y="369"/><ellipse cx="1345.8" cy="385" fill="#ADD1B2" rx="11" ry="11" style="stroke:#000000;stroke-width:1.0;"/><path d="M1348.2731,391.1431 Q1347.6921,391.4419 1347.0529,391.5913 Q1346.4138,391.7407 1345.7082,391.7407 Q1343.2014,391.7407 1341.8815,390.0889 Q1340.5617,388.437 1340.5617,385.3159 Q1340.5617,382.1865 1341.8815,380.5347 Q1343.2014,378.8828 1345.7082,378.8828 Q1346.4138,378.8828 1347.0612,379.0322 Q1347.7087,379.1816 1348.2731,379.4805 L1348.2731,382.2031 Q1347.6423,381.6221 1347.0488,381.3523 Q1346.4553,381.0825 1345.8244,381.0825 Q1344.4797,381.0825 1343.7949,382.1492 Q1343.1101,383.2158 1343.1101,385.3159 Q1343.1101,387.4077 1343.7949,388.4744 Q1344.4797,389.541 1345.8244,389.541 Q1346.4553,389.541 1347.0488,389.2712 Q1347.6423,389.0015 1348.2731,388.4204 Z " fill="#000000"/><text fill="#000000" font-family="sans-serif" font-size="12" lengthAdjust="spacing" textLength="134" x="1364.2" y="389.5352">DefaultMergeDictionary</text><line style="stroke:#000000;stroke-width:1.5;" x1="1312" x2="1520" y1="401" y2="401"/><line style="stroke:#000000;stroke-width:1.5;" x1="1312" x2="1520" y1="409" y2="409"/><ellipse cx="1322" cy="420" fill="#84BE84" rx="3" ry="3" style="stroke:#038048;stroke-width:1.0;"/><text fill="#000000" font-family="sans-serif" font-size="11" lengthAdjust="spacing" textLength="184" x="1331" y="423.6348">merge(left: dict, right: dict) -&gt; dict</text><!--MD5=[5ac07c123e65d78bdf3727c1016af035]
class md.persistence.LoadInterface--><rect codeLine="24" fill="#EBEBEB" filter="url(#fu7wdvvr43xs0)" height="73.9102" id="md.persistence.LoadInterface" style="stroke:#000000;stroke-width:1.5;" width="268" x="987" y="362.5"/><ellipse cx="1077.75" cy="378.5" fill="#B4A7E5" rx="11" ry="11" style="stroke:#000000;stroke-width:1.0;"/><path d="M1074.1777,374.7651 L1074.1777,372.6069 L1081.5571,372.6069 L1081.5571,374.7651 L1079.0918,374.7651 L1079.0918,382.8418 L1081.5571,382.8418 L1081.5571,385 L1074.1777,385 L1074.1777,382.8418 L1076.6431,382.8418 L1076.6431,374.7651 Z " fill="#000000"/><text fill="#000000" font-family="sans-serif" font-size="12" font-style="italic" lengthAdjust="spacing" textLength="78" x="1098.25" y="383.0352">LoadInterface</text><line style="stroke:#000000;stroke-width:1.5;" x1="988" x2="1254" y1="394.5" y2="394.5"/><line style="stroke:#000000;stroke-width:1.5;" x1="988" x2="1254" y1="402.5" y2="402.5"/><ellipse cx="998" cy="413.5" fill="#84BE84" rx="3" ry="3" style="stroke:#038048;stroke-width:1.0;"/><text fill="#000000" font-family="sans-serif" font-size="11" lengthAdjust="spacing" textLength="242" x="1007" y="417.1348">load(filename: str) -&gt; Tuple[Any, GraphType]</text><ellipse cx="998" cy="426.4551" fill="#84BE84" rx="3" ry="3" style="stroke:#038048;stroke-width:1.0;"/><text fill="#000000" font-family="sans-serif" font-size="11" lengthAdjust="spacing" textLength="168" x="1007" y="430.0898">supports(filename: str) -&gt; bool</text><!--MD5=[71085ccf787f53ad354713bca0532937]
class md.persistence.DumpInterface--><rect codeLine="29" fill="#EBEBEB" filter="url(#fu7wdvvr43xs0)" height="60.9551" id="md.persistence.DumpInterface" style="stroke:#000000;stroke-width:1.5;" width="236" x="216" y="175"/><ellipse cx="287.25" cy="191" fill="#B4A7E5" rx="11" ry="11" style="stroke:#000000;stroke-width:1.0;"/><path d="M283.6777,187.2651 L283.6777,185.1069 L291.0571,185.1069 L291.0571,187.2651 L288.5918,187.2651 L288.5918,195.3418 L291.0571,195.3418 L291.0571,197.5 L283.6777,197.5 L283.6777,195.3418 L286.1431,195.3418 L286.1431,187.2651 Z " fill="#000000"/><text fill="#000000" font-family="sans-serif" font-size="12" font-style="italic" lengthAdjust="spacing" textLength="85" x="307.75" y="195.5352">DumpInterface</text><line style="stroke:#000000;stroke-width:1.5;" x1="217" x2="451" y1="207" y2="207"/><line style="stroke:#000000;stroke-width:1.5;" x1="217" x2="451" y1="215" y2="215"/><ellipse cx="227" cy="226" fill="#84BE84" rx="3" ry="3" style="stroke:#038048;stroke-width:1.0;"/><text fill="#000000" font-family="sans-serif" font-size="11" lengthAdjust="spacing" textLength="210" x="236" y="229.6348">dump(filename: str, data: Any) -&gt; None</text><!--MD5=[983a923389abf31ce4baa6d76e0ec0b6]
class md.persistence.ImportInterface--><rect codeLine="33" fill="#EBEBEB" filter="url(#fu7wdvvr43xs0)" height="60.9551" id="md.persistence.ImportInterface" style="stroke:#000000;stroke-width:1.5;" width="470" x="648" y="41"/><ellipse cx="834.75" cy="57" fill="#B4A7E5" rx="11" ry="11" style="stroke:#000000;stroke-width:1.0;"/><path d="M831.1777,53.2651 L831.1777,51.1069 L838.5571,51.1069 L838.5571,53.2651 L836.0918,53.2651 L836.0918,61.3418 L838.5571,61.3418 L838.5571,63.5 L831.1777,63.5 L831.1777,61.3418 L833.6431,61.3418 L833.6431,53.2651 Z " fill="#000000"/><text fill="#000000" font-family="sans-serif" font-size="12" font-style="italic" lengthAdjust="spacing" textLength="88" x="855.25" y="61.5352">ImportInterface</text><line style="stroke:#000000;stroke-width:1.5;" x1="649" x2="1117" y1="73" y2="73"/><line style="stroke:#000000;stroke-width:1.5;" x1="649" x2="1117" y1="81" y2="81"/><ellipse cx="659" cy="92" fill="#84BE84" rx="3" ry="3" style="stroke:#038048;stroke-width:1.0;"/><text fill="#000000" font-family="sans-serif" font-size="11" lengthAdjust="spacing" textLength="444" x="668" y="95.6348">import_(content: dict, resource_list: List[Tuple[str, str]]) -&gt; Tuple[dict, GraphType]</text><!--MD5=[15d3ae565e311bf8f7602afd1de5bc36]
class md.persistence.PersistenceExceptionInterface--><rect codeLine="37" fill="#EBEBEB" filter="url(#fu7wdvvr43xs0)" height="48" id="md.persistence.PersistenceExceptionInterface" style="stroke:#000000;stroke-width:1.5;" width="203" x="487.5" y="181.5"/><ellipse cx="502.5" cy="197.5" fill="#B4A7E5" rx="11" ry="11" style="stroke:#000000;stroke-width:1.0;"/><path d="M498.9277,193.7651 L498.9277,191.6069 L506.3071,191.6069 L506.3071,193.7651 L503.8418,193.7651 L503.8418,201.8418 L506.3071,201.8418 L506.3071,204 L498.9277,204 L498.9277,201.8418 L501.3931,201.8418 L501.3931,193.7651 Z " fill="#000000"/><text fill="#000000" font-family="sans-serif" font-size="12" font-style="italic" lengthAdjust="spacing" textLength="171" x="516.5" y="202.0352">PersistenceExceptionInterface</text><line style="stroke:#000000;stroke-width:1.5;" x1="488.5" x2="689.5" y1="213.5" y2="213.5"/><line style="stroke:#000000;stroke-width:1.5;" x1="488.5" x2="689.5" y1="221.5" y2="221.5"/><!--MD5=[9aa7fabd0ab29e2658ecfe38292ce9d4]
class md.persistence.LoadException--><rect codeLine="38" fill="#EBEBEB" filter="url(#fu7wdvvr43xs0)" height="206.5059" id="md.persistence.LoadException" style="stroke:#000000;stroke-width:1.5;" width="466" x="423" y="550"/><ellipse cx="609.75" cy="566" fill="#FFA659" rx="11" ry="11" style="stroke:#000000;stroke-width:1.0;"/><path d="M614.2607,572.5 L611.729,572.5 L609.3633,568.3994 L607.0059,572.5 L604.4741,572.5 L608.1099,566.208 L604.5737,560.1069 L607.1055,560.1069 L609.3633,564.0498 L611.6294,560.1069 L614.1611,560.1069 L610.6416,566.208 Z " fill="#000000"/><text fill="#000000" font-family="sans-serif" font-size="12" lengthAdjust="spacing" textLength="84" x="630.25" y="570.5352">LoadException</text><line style="stroke:#000000;stroke-width:1.5;" x1="424" x2="888" y1="582" y2="582"/><ellipse cx="434" cy="593" rx="3" ry="3" style="stroke:#038048;stroke-width:1.0;fill:none;"/><text fill="#000000" font-family="sans-serif" font-size="11" lengthAdjust="spacing" text-decoration="underline" textLength="105" x="443" y="596.6348">IMPORT_ERROR = 1</text><ellipse cx="434" cy="605.9551" rx="3" ry="3" style="stroke:#038048;stroke-width:1.0;fill:none;"/><text fill="#000000" font-family="sans-serif" font-size="11" lengthAdjust="spacing" text-decoration="underline" textLength="97" x="443" y="609.5898">PARSE_ERROR = 2</text><ellipse cx="434" cy="618.9102" rx="3" ry="3" style="stroke:#038048;stroke-width:1.0;fill:none;"/><text fill="#000000" font-family="sans-serif" font-size="11" lengthAdjust="spacing" text-decoration="underline" textLength="115" x="443" y="622.5449">NOT_SUPPORTED = 3</text><ellipse cx="434" cy="631.8652" rx="3" ry="3" style="stroke:#038048;stroke-width:1.0;fill:none;"/><text fill="#000000" font-family="sans-serif" font-size="11" lengthAdjust="spacing" text-decoration="underline" textLength="142" x="443" y="635.5">REQUIREMENT_MISSED = 4</text><line style="stroke:#000000;stroke-width:1.0;" x1="424" x2="888" y1="641.8203" y2="641.8203"/><ellipse cx="434" cy="652.8203" rx="3" ry="3" style="stroke:#038048;stroke-width:1.0;fill:none;"/><text fill="#000000" font-family="sans-serif" font-size="11" lengthAdjust="spacing" textLength="68" x="443" y="656.4551">code: int = 0</text><ellipse cx="434" cy="665.7754" rx="3" ry="3" style="stroke:#038048;stroke-width:1.0;fill:none;"/><text fill="#000000" font-family="sans-serif" font-size="11" lengthAdjust="spacing" textLength="88" x="443" y="669.4102">path: str = None</text><line style="stroke:#000000;stroke-width:1.0;" x1="424" x2="888" y1="675.7305" y2="675.7305"/><ellipse cx="434" cy="686.7305" fill="#84BE84" rx="3" ry="3" style="stroke:#038048;stroke-width:1.0;"/><text fill="#000000" font-family="sans-serif" font-size="11" lengthAdjust="spacing" text-decoration="underline" textLength="317" x="443" y="690.3652">as_import_error(path: str = None, *, **) -&gt; 'LoadException'</text><ellipse cx="434" cy="699.6855" fill="#84BE84" rx="3" ry="3" style="stroke:#038048;stroke-width:1.0;"/><text fill="#000000" font-family="sans-serif" font-size="11" lengthAdjust="spacing" text-decoration="underline" textLength="394" x="443" y="703.3203">as_parse_error(cls, path: str = None, *args, **kwargs) -&gt; 'LoadException'</text><ellipse cx="434" cy="712.6406" fill="#84BE84" rx="3" ry="3" style="stroke:#038048;stroke-width:1.0;"/><text fill="#000000" font-family="sans-serif" font-size="11" lengthAdjust="spacing" text-decoration="underline" textLength="410" x="443" y="716.2754">as_not_supported(cls, path: str = None, *args, **kwargs) -&gt; 'LoadException'</text><ellipse cx="434" cy="725.5957" fill="#84BE84" rx="3" ry="3" style="stroke:#038048;stroke-width:1.0;"/><text fill="#000000" font-family="sans-serif" font-size="11" lengthAdjust="spacing" text-decoration="underline" textLength="440" x="443" y="729.2305">as_requirement_missed(cls, path: str = None, *args, **kwargs) -&gt; 'LoadException'</text><line style="stroke:#000000;stroke-width:1.0;" x1="424" x2="888" y1="735.5508" y2="735.5508"/><ellipse cx="434" cy="746.5508" fill="#84BE84" rx="3" ry="3" style="stroke:#038048;stroke-width:1.0;"/><text fill="#000000" font-family="sans-serif" font-size="11" lengthAdjust="spacing" textLength="287" x="443" y="750.1855">__init__(code: int = 0, path: str = None, *, **) -&gt; None</text><!--MD5=[9855994ee4a8c54581b04d8ca135ca5c]
class md.persistence.DumpException--><rect codeLine="55" fill="#EBEBEB" filter="url(#fu7wdvvr43xs0)" height="86.8652" id="md.persistence.DumpException" style="stroke:#000000;stroke-width:1.5;" width="313" x="196.5" y="356"/><ellipse cx="303.25" cy="372" fill="#FFA659" rx="11" ry="11" style="stroke:#000000;stroke-width:1.0;"/><path d="M307.7607,378.5 L305.229,378.5 L302.8633,374.3994 L300.5059,378.5 L297.9741,378.5 L301.6099,372.208 L298.0737,366.1069 L300.6055,366.1069 L302.8633,370.0498 L305.1294,366.1069 L307.6611,366.1069 L304.1416,372.208 Z " fill="#000000"/><text fill="#000000" font-family="sans-serif" font-size="12" lengthAdjust="spacing" textLength="91" x="323.75" y="376.5352">DumpException</text><line style="stroke:#000000;stroke-width:1.5;" x1="197.5" x2="508.5" y1="388" y2="388"/><ellipse cx="207.5" cy="399" rx="3" ry="3" style="stroke:#038048;stroke-width:1.0;fill:none;"/><text fill="#000000" font-family="sans-serif" font-size="11" lengthAdjust="spacing" textLength="68" x="216.5" y="402.6348">code: int = 0</text><ellipse cx="207.5" cy="411.9551" rx="3" ry="3" style="stroke:#038048;stroke-width:1.0;fill:none;"/><text fill="#000000" font-family="sans-serif" font-size="11" lengthAdjust="spacing" textLength="88" x="216.5" y="415.5898">path: str = None</text><line style="stroke:#000000;stroke-width:1.0;" x1="197.5" x2="508.5" y1="421.9102" y2="421.9102"/><ellipse cx="207.5" cy="432.9102" fill="#84BE84" rx="3" ry="3" style="stroke:#038048;stroke-width:1.0;"/><text fill="#000000" font-family="sans-serif" font-size="11" lengthAdjust="spacing" textLength="287" x="216.5" y="436.5449">__init__(code: int = 0, path: str = None, *, **) -&gt; None</text><!--MD5=[af030ba6f0385abe7e318cde15116dee]
class md.persistence.ImportException--><rect codeLine="62" fill="#EBEBEB" filter="url(#fu7wdvvr43xs0)" height="180.5957" id="md.persistence.ImportException" style="stroke:#000000;stroke-width:1.5;" width="369" x="582.5" y="309"/><ellipse cx="715.75" cy="325" fill="#FFA659" rx="11" ry="11" style="stroke:#000000;stroke-width:1.0;"/><path d="M720.2607,331.5 L717.729,331.5 L715.3633,327.3994 L713.0059,331.5 L710.4741,331.5 L714.1099,325.208 L710.5737,319.1069 L713.1055,319.1069 L715.3633,323.0498 L717.6294,319.1069 L720.1611,319.1069 L716.6416,325.208 Z " fill="#000000"/><text fill="#000000" font-family="sans-serif" font-size="12" lengthAdjust="spacing" textLength="94" x="736.25" y="329.5352">ImportException</text><line style="stroke:#000000;stroke-width:1.5;" x1="583.5" x2="950.5" y1="341" y2="341"/><ellipse cx="593.5" cy="352" rx="3" ry="3" style="stroke:#038048;stroke-width:1.0;fill:none;"/><text fill="#000000" font-family="sans-serif" font-size="11" lengthAdjust="spacing" text-decoration="underline" textLength="87" x="602.5" y="355.6348">NOT_EXISTS = 1</text><ellipse cx="593.5" cy="364.9551" rx="3" ry="3" style="stroke:#038048;stroke-width:1.0;fill:none;"/><text fill="#000000" font-family="sans-serif" font-size="11" lengthAdjust="spacing" text-decoration="underline" textLength="100" x="602.5" y="368.5898">MERGE_ERROR = 2</text><ellipse cx="593.5" cy="377.9102" rx="3" ry="3" style="stroke:#038048;stroke-width:1.0;fill:none;"/><text fill="#000000" font-family="sans-serif" font-size="11" lengthAdjust="spacing" text-decoration="underline" textLength="126" x="602.5" y="381.5449">RECURSION_ERROR = 3</text><line style="stroke:#000000;stroke-width:1.0;" x1="583.5" x2="950.5" y1="387.8652" y2="387.8652"/><ellipse cx="593.5" cy="398.8652" rx="3" ry="3" style="stroke:#038048;stroke-width:1.0;fill:none;"/><text fill="#000000" font-family="sans-serif" font-size="11" lengthAdjust="spacing" textLength="68" x="602.5" y="402.5">code: int = 0</text><ellipse cx="593.5" cy="411.8203" rx="3" ry="3" style="stroke:#038048;stroke-width:1.0;fill:none;"/><text fill="#000000" font-family="sans-serif" font-size="11" lengthAdjust="spacing" textLength="88" x="602.5" y="415.4551">path: str = None</text><line style="stroke:#000000;stroke-width:1.0;" x1="583.5" x2="950.5" y1="421.7754" y2="421.7754"/><ellipse cx="593.5" cy="432.7754" fill="#84BE84" rx="3" ry="3" style="stroke:#038048;stroke-width:1.0;"/><text fill="#000000" font-family="sans-serif" font-size="11" lengthAdjust="spacing" text-decoration="underline" textLength="313" x="602.5" y="436.4102">as_not_exists(path: str = None, *, **) -&gt; 'ImportException'</text><ellipse cx="593.5" cy="445.7305" fill="#84BE84" rx="3" ry="3" style="stroke:#038048;stroke-width:1.0;"/><text fill="#000000" font-family="sans-serif" font-size="11" lengthAdjust="spacing" text-decoration="underline" textLength="291" x="602.5" y="449.3652">as_merge(path: str = None, *, **) -&gt; 'ImportException'</text><ellipse cx="593.5" cy="458.6855" fill="#84BE84" rx="3" ry="3" style="stroke:#038048;stroke-width:1.0;"/><text fill="#000000" font-family="sans-serif" font-size="11" lengthAdjust="spacing" text-decoration="underline" textLength="343" x="602.5" y="462.3203">as_recursion_error(path: str = None, *, **) -&gt; 'ImportException'</text><line style="stroke:#000000;stroke-width:1.0;" x1="583.5" x2="950.5" y1="468.6406" y2="468.6406"/><ellipse cx="593.5" cy="479.6406" fill="#84BE84" rx="3" ry="3" style="stroke:#038048;stroke-width:1.0;"/><text fill="#000000" font-family="sans-serif" font-size="11" lengthAdjust="spacing" textLength="287" x="602.5" y="483.2754">__init__(code: int = 0, path: str = None, *, **) -&gt; None</text><!--MD5=[c1b0d485fda3f72d8a976902fe367d5a]
class md.persistence.DefaultImport--><rect codeLine="77" fill="#EBEBEB" filter="url(#fu7wdvvr43xs0)" height="86.8652" id="md.persistence.DefaultImport" style="stroke:#000000;stroke-width:1.5;" width="471" x="783.5" y="162"/><ellipse cx="975.25" cy="178" fill="#ADD1B2" rx="11" ry="11" style="stroke:#000000;stroke-width:1.0;"/><path d="M977.7231,184.1431 Q977.1421,184.4419 976.5029,184.5913 Q975.8638,184.7407 975.1582,184.7407 Q972.6514,184.7407 971.3315,183.0889 Q970.0117,181.437 970.0117,178.3159 Q970.0117,175.1865 971.3315,173.5347 Q972.6514,171.8828 975.1582,171.8828 Q975.8638,171.8828 976.5112,172.0322 Q977.1587,172.1816 977.7231,172.4805 L977.7231,175.2031 Q977.0923,174.6221 976.4988,174.3523 Q975.9053,174.0825 975.2744,174.0825 Q973.9297,174.0825 973.2449,175.1492 Q972.5601,176.2158 972.5601,178.3159 Q972.5601,180.4077 973.2449,181.4744 Q973.9297,182.541 975.2744,182.541 Q975.9053,182.541 976.4988,182.2712 Q977.0923,182.0015 977.7231,181.4204 Z " fill="#000000"/><text fill="#000000" font-family="sans-serif" font-size="12" lengthAdjust="spacing" textLength="79" x="995.75" y="182.5352">DefaultImport</text><line style="stroke:#000000;stroke-width:1.5;" x1="784.5" x2="1253.5" y1="194" y2="194"/><rect fill="none" height="6" style="stroke:#C82930;stroke-width:1.0;" width="6" x="791.5" y="202"/><text fill="#000000" font-family="sans-serif" font-size="11" lengthAdjust="spacing" textLength="102" x="803.5" y="208.6348">load: LoadInterface</text><rect fill="none" height="6" style="stroke:#C82930;stroke-width:1.0;" width="6" x="791.5" y="214.9551"/><text fill="#000000" font-family="sans-serif" font-size="11" lengthAdjust="spacing" textLength="319" x="803.5" y="221.5898">merge_dictionary: md.python.dict.MergeDictionaryInterface</text><line style="stroke:#000000;stroke-width:1.0;" x1="784.5" x2="1253.5" y1="227.9102" y2="227.9102"/><ellipse cx="794.5" cy="238.9102" fill="#84BE84" rx="3" ry="3" style="stroke:#038048;stroke-width:1.0;"/><text fill="#000000" font-family="sans-serif" font-size="11" lengthAdjust="spacing" textLength="445" x="803.5" y="242.5449">import_(content: dict, resource_list: List[Tuple[str, str]]) -&gt; Tuple[Dict, GraphType]</text><!--MD5=[192338535cc75ab9764030be631cfd75]
reverse link md.python.dict.MergeDictionaryInterface to md.python.dict.DefaultMergeDictionary--><path d="M1416,256.24 C1416,256.24 1416,368.9 1416,368.9 " fill="none" id="md.python.dict.MergeDictionaryInterface-backto-md.python.dict.DefaultMergeDictionary" style="stroke:#333333;stroke-width:1.0;stroke-dasharray:7.0,7.0;"/><polygon fill="none" points="1409,256.24,1416,236.24,1423,256.24,1409,256.24" style="stroke:#333333;stroke-width:1.0;"/><!--MD5=[6982c66aa9dc1e6bc575bfecd8a55cc5]
reverse link builtins.RuntimeError to md.persistence.LoadException--><path d="M68,249.61 C68,249.61 68,654 68,654 C68,654 258.6,654 422.76,654 " fill="none" id="builtins.RuntimeError-backto-md.persistence.LoadException" style="stroke:#333333;stroke-width:1.0;"/><polygon fill="none" points="61,249.61,68,229.61,75,249.61,61,249.61" style="stroke:#333333;stroke-width:1.0;"/><!--MD5=[1cc2ac1ecbea7e6b00dc409053050fba]
reverse link md.persistence.PersistenceExceptionInterface to md.persistence.LoadException--><path d="M546,249.59 C546,249.59 546,549.77 546,549.77 " fill="none" id="md.persistence.PersistenceExceptionInterface-backto-md.persistence.LoadException" style="stroke:#333333;stroke-width:1.0;stroke-dasharray:7.0,7.0;"/><polygon fill="none" points="539,249.59,546,229.59,553,249.59,539,249.59" style="stroke:#333333;stroke-width:1.0;"/><!--MD5=[49cf1fec8abd63f6e4bb272b8d6b4617]
reverse link builtins.RuntimeError to md.persistence.DumpException--><path d="M160.14,206 C160.14,206 206.25,206 206.25,206 C206.25,206 206.25,298.5 206.25,355.59 " fill="none" id="builtins.RuntimeError-backto-md.persistence.DumpException" style="stroke:#333333;stroke-width:1.0;"/><polygon fill="none" points="160.14,213,140.14,206,160.14,199,160.14,213" style="stroke:#333333;stroke-width:1.0;"/><!--MD5=[3c01c81d155a132f776bd9f9dbc6ffd7]
reverse link md.persistence.PersistenceExceptionInterface to md.persistence.DumpException--><path d="M498.5,249.68 C498.5,249.68 498.5,355.76 498.5,355.76 " fill="none" id="md.persistence.PersistenceExceptionInterface-backto-md.persistence.DumpException" style="stroke:#333333;stroke-width:1.0;stroke-dasharray:7.0,7.0;"/><polygon fill="none" points="491.5,249.68,498.5,229.68,505.5,249.68,491.5,249.68" style="stroke:#333333;stroke-width:1.0;"/><!--MD5=[1f67cf4e1afbd5b02865474c594180ea]
reverse link builtins.RuntimeError to md.persistence.ImportException--><path d="M104,249.78 C104,249.78 104,333 104,333 C104,333 386.14,333 582.32,333 " fill="none" id="builtins.RuntimeError-backto-md.persistence.ImportException" style="stroke:#333333;stroke-width:1.0;"/><polygon fill="none" points="97,249.78,104,229.78,111,249.78,97,249.78" style="stroke:#333333;stroke-width:1.0;"/><!--MD5=[81f5d10e336d622490b297ced9cda336]
reverse link md.persistence.PersistenceExceptionInterface to md.persistence.ImportException--><path d="M636.5,249.68 C636.5,249.68 636.5,308.92 636.5,308.92 " fill="none" id="md.persistence.PersistenceExceptionInterface-backto-md.persistence.ImportException" style="stroke:#333333;stroke-width:1.0;stroke-dasharray:7.0,7.0;"/><polygon fill="none" points="629.5,249.68,636.5,229.68,643.5,249.68,629.5,249.68" style="stroke:#333333;stroke-width:1.0;"/><!--MD5=[7749a31990ff1975698425b6f6f03755]
reverse link md.persistence.ImportInterface to md.persistence.DefaultImport--><path d="M950.75,122.24 C950.75,122.24 950.75,161.95 950.75,161.95 " fill="none" id="md.persistence.ImportInterface-backto-md.persistence.DefaultImport" style="stroke:#333333;stroke-width:1.0;stroke-dasharray:7.0,7.0;"/><polygon fill="none" points="943.75,122.24,950.75,102.24,957.75,122.24,943.75,122.24" style="stroke:#333333;stroke-width:1.0;"/><!--MD5=[a1a8d1e8de8c74eefd81a34fecc47f3b]
link md.persistence.DefaultImport to md.persistence.LoadInterface--><path codeLine="84" d="M1120.75,261.04 C1120.75,261.04 1120.75,349.31 1120.75,349.31 " fill="none" id="md.persistence.DefaultImport-md.persistence.LoadInterface" style="stroke:#333333;stroke-width:1.0;"/><polygon fill="#333333" points="1120.75,362.31,1124.75,353.31,1120.75,357.31,1116.75,353.31,1120.75,362.31" style="stroke:#333333;stroke-width:1.0;"/><line style="stroke:#333333;stroke-width:1.0;" x1="1120.75" x2="1120.75" y1="357.31" y2="349.31"/><polygon fill="#333333" points="1120.75,249.04,1116.75,255.04,1120.75,261.04,1124.75,255.04,1120.75,249.04" style="stroke:#333333;stroke-width:1.0;"/><!--MD5=[0bf5b1cf26c1e12581970c92ce7e6a56]
link md.persistence.DefaultImport to md.python.dict.MergeDictionaryInterface--><path codeLine="85" d="M1266.52,206 C1266.52,206 1297.85,206 1297.85,206 " fill="none" id="md.persistence.DefaultImport-md.python.dict.MergeDictionaryInterface" style="stroke:#333333;stroke-width:1.0;"/><polygon fill="#333333" points="1310.85,206,1301.85,202,1305.85,206,1301.85,210,1310.85,206" style="stroke:#333333;stroke-width:1.0;"/><line style="stroke:#333333;stroke-width:1.0;" x1="1305.85" x2="1297.85" y1="206" y2="206"/><polygon fill="#333333" points="1254.52,206,1260.52,210,1266.52,206,1260.52,202,1254.52,206" style="stroke:#333333;stroke-width:1.0;"/><!--MD5=[9f7eb6b17b4a32af3753d00deb73fd89]
link md.persistence.LoadInterface to md.persistence.LoadException--><path codeLine="87" d="M1121,436.51 C1121,507.09 1121,654 1121,654 C1121,654 1005.2,654 889.18,654 " fill="none" id="md.persistence.LoadInterface-md.persistence.LoadException" style="stroke:#333333;stroke-width:1.0;stroke-dasharray:7.0,7.0;"/><polygon fill="#000000" points="1063.1936,649.0763,1071.8009,645.0309,1067.7792,640.7443,1063.1936,649.0763" style="stroke:#000000;stroke-width:1.0;"/><text fill="#000000" font-family="sans-serif" font-size="13" lengthAdjust="spacing" textLength="37" x="1075.84" y="650.5684">raises</text><!--MD5=[ced5c5815858cf1d29f27f0ef4908a70]
link md.persistence.DumpInterface to md.persistence.DumpException--><path codeLine="88" d="M334,236.24 C334,268.51 334,319.51 334,355.92 " fill="none" id="md.persistence.DumpInterface-md.persistence.DumpException" style="stroke:#333333;stroke-width:1.0;stroke-dasharray:7.0,7.0;"/><polygon fill="#000000" points="287,292.7353,289.9389,283.6902,284.0611,283.6902,287,292.7353" style="stroke:#000000;stroke-width:1.0;"/><text fill="#000000" font-family="sans-serif" font-size="13" lengthAdjust="spacing" textLength="37" x="296" y="292.6484">raises</text><!--MD5=[2d6cf1f28a7cdc9c267e915078847a42]
link md.persistence.ImportInterface to md.persistence.ImportException--><path codeLine="89" d="M737,102.06 C737,148.74 737,239.64 737,308.73 " fill="none" id="md.persistence.ImportInterface-md.persistence.ImportException" style="stroke:#333333;stroke-width:1.0;stroke-dasharray:7.0,7.0;"/><polygon fill="#000000" points="729,219.0553,731.9389,210.0102,726.0611,210.0102,729,219.0553" style="stroke:#000000;stroke-width:1.0;"/><text fill="#000000" font-family="sans-serif" font-size="13" lengthAdjust="spacing" textLength="37" x="738" y="218.9684">raises</text><!--MD5=[12e69299544df89559b2ef90891f9a78]
link md.persistence.ImportException to md.persistence.LoadException--><path codeLine="90" d="M735.75,490.12 C735.75,509.5 735.75,530.11 735.75,549.93 " fill="none" id="md.persistence.ImportException-md.persistence.LoadException" style="stroke:#333333;stroke-width:1.0;stroke-dasharray:7.0,7.0;"/><polygon fill="#000000" points="692.75,516.6853,695.6889,507.6402,689.8111,507.6402,692.75,516.6853" style="stroke:#000000;stroke-width:1.0;"/><text fill="#000000" font-family="sans-serif" font-size="13" lengthAdjust="spacing" textLength="33" x="701.75" y="516.5984">leads</text><!--MD5=[d74c117c6f8a3e2abeb0b2931c4d9a25]
@startuml

skinparam class {
  BackgroundColor #ebebeb
  ArrowColor      #333
  BorderColor     #000
}

skinparam lineType ortho

package builtins {
  class builtins.RuntimeError <<(X,#FFA659)>> {}
}

namespace md.python.dict {
  interface MergeDictionaryInterface {
    + merge(left: dict, right: dict) -> dict
  }
  class DefaultMergeDictionary implements MergeDictionaryInterface {
    + merge(left: dict, right: dict) -> dict
  }
}

namespace md.persistence {
  interface LoadInterface {
    + load(filename: str) -> Tuple[Any, GraphType]
    + supports(filename: str) -> bool
  }

  interface DumpInterface {
    + dump(filename: str, data: Any) -> None
  }

  interface ImportInterface {
    + import_(content: dict, resource_list: List[Tuple[str, str]]) -> Tuple[dict, GraphType]
  }

  interface PersistenceExceptionInterface {}
  class LoadException <<(X,#FFA659)>> extends builtins.RuntimeError implements PersistenceExceptionInterface {
    + {static} IMPORT_ERROR = 1
    + {static} PARSE_ERROR = 2
    + {static} NOT_SUPPORTED = 3
    + {static} REQUIREMENT_MISSED = 4
    - - -
    + code: int = 0
    + path: str = None
    - - -
    + {static} as_import_error(path: str = None, *, **) -> 'LoadException'
    + {static} as_parse_error(cls, path: str = None, *args, **kwargs) -> 'LoadException'
    + {static} as_not_supported(cls, path: str = None, *args, **kwargs) -> 'LoadException'
    + {static} as_requirement_missed(cls, path: str = None, *args, **kwargs) -> 'LoadException'
    - - -
    + __init__(code: int = 0, path: str = None, *, **) -> None
  }

  class DumpException <<(X,#FFA659)>> extends builtins.RuntimeError implements PersistenceExceptionInterface {
    + code: int = 0
    + path: str = None
    - - -
    + __init__(code: int = 0, path: str = None, *, **) -> None
  }

  class ImportException <<(X,#FFA659)>> extends builtins.RuntimeError implements PersistenceExceptionInterface {
    + {static} NOT_EXISTS = 1
    + {static} MERGE_ERROR = 2
    + {static} RECURSION_ERROR = 3
    - - -
    + code: int = 0
    + path: str = None
    - - -
    + {static} as_not_exists(path: str = None, *, **) -> 'ImportException'
    + {static} as_merge(path: str = None, *, **) -> 'ImportException'
    + {static} as_recursion_error(path: str = None, *, **) -> 'ImportException'
    - - -
    + __init__(code: int = 0, path: str = None, *, **) -> None
  }

  class DefaultImport implements ImportInterface {
    - load: LoadInterface
    - merge_dictionary: md.python.dict.MergeDictionaryInterface
    - - -
    + import_(content: dict, resource_list: List[Tuple[str, str]]) -> Tuple[Dict, GraphType]
  }

  DefaultImport *- -> LoadInterface
  DefaultImport *-> md.python.dict.MergeDictionaryInterface

  LoadInterface .. LoadException : "raises >"
  DumpInterface .. DumpException : "raises >"
  ImportInterface .. ImportException : "raises >"
  ImportException .. LoadException : "leads >"
}

@enduml

PlantUML version 1.2022.0(Tue Jan 11 19:16:42 MSK 2022)
(GPL source distribution)
Java Runtime: Java(TM) SE Runtime Environment
JVM: Java HotSpot(TM) 64-Bit Server VM
Default Encoding: UTF-8
Language: ru
Country: RU
--></g></svg>