<?xml version="1.0" encoding="UTF-8" standalone="no"?><svg xmlns="http://www.w3.org/2000/svg" xmlns:xlink="http://www.w3.org/1999/xlink" contentScriptType="application/ecmascript" contentStyleType="text/css" height="587px" preserveAspectRatio="none" style="width:1536px;height:587px;background:#FFFFFF;" version="1.1" viewBox="0 0 1536 587" width="1536px" zoomAndPan="magnify"><defs><filter height="300%" id="f1agi5ziqz151a" width="300%" x="-1" y="-1"><feGaussianBlur result="blurOut" stdDeviation="2.0"/><feColorMatrix in="blurOut" result="blurOut2" type="matrix" values="0 0 0 0 0 0 0 0 0 0 0 0 0 0 0 0 0 0 .4 0"/><feOffset dx="4.0" dy="4.0" in="blurOut2" result="blurOut3"/><feBlend in="SourceGraphic" in2="blurOut3" mode="normal"/></filter></defs><g><!--MD5=[5e9a57a3377260e11f4c161d717e577e]
cluster builtins--><polygon fill="#FFFFFF" filter="url(#f1agi5ziqz151a)" points="16,146.5,78,146.5,85,168.9883,156,168.9883,156,245.5,16,245.5,16,146.5" style="stroke:#000000;stroke-width:1.5;"/><line style="stroke:#000000;stroke-width:1.5;" x1="16" x2="85" y1="168.9883" y2="168.9883"/><text fill="#000000" font-family="sans-serif" font-size="14" font-weight="bold" lengthAdjust="spacing" textLength="56" x="20" y="162.0352">builtins</text><!--MD5=[9337302705db7c49fd58a3d6e23dcdae]
cluster md.python.dict--><polygon fill="#FFFFFF" filter="url(#f1agi5ziqz151a)" points="1277,140,1389,140,1396,162.4883,1519,162.4883,1519,405.5,1277,405.5,1277,140" style="stroke:#000000;stroke-width:1.5;"/><line style="stroke:#000000;stroke-width:1.5;" x1="1277" x2="1396" y1="162.4883" y2="162.4883"/><text fill="#000000" font-family="sans-serif" font-size="14" font-weight="bold" lengthAdjust="spacing" textLength="106" x="1281" y="155.5352">md.python.dict</text><!--MD5=[e2d366466281fd4798d78288f9c6b5bb]
cluster md.persistence--><polygon fill="#FFFFFF" filter="url(#f1agi5ziqz151a)" points="180,6,294,6,301,28.4883,1253,28.4883,1253,580,180,580,180,6" style="stroke:#000000;stroke-width:1.5;"/><line style="stroke:#000000;stroke-width:1.5;" x1="180" x2="301" y1="28.4883" y2="28.4883"/><text fill="#000000" font-family="sans-serif" font-size="14" font-weight="bold" lengthAdjust="spacing" textLength="108" x="184" y="21.5352">md.persistence</text><!--MD5=[26afaa6943c9e0f56a262483a2ac1d31]
class builtins.RuntimeError--><rect codeLine="11" fill="#EBEBEB" filter="url(#f1agi5ziqz151a)" height="48" id="builtins.RuntimeError" style="stroke:#000000;stroke-width:1.5;" width="108" x="32" y="181.5"/><ellipse cx="47" cy="197.5" fill="#ADD1B2" rx="11" ry="11" style="stroke:#000000;stroke-width:1.0;"/><path d="M49.9731,203.1431 Q49.3921,203.4419 48.7529,203.5913 Q48.1138,203.7407 47.4082,203.7407 Q44.9014,203.7407 43.5815,202.0889 Q42.2617,200.437 42.2617,197.3159 Q42.2617,194.1865 43.5815,192.5347 Q44.9014,190.8828 47.4082,190.8828 Q48.1138,190.8828 48.7612,191.0322 Q49.4087,191.1816 49.9731,191.4805 L49.9731,194.2031 Q49.3423,193.6221 48.7488,193.3523 Q48.1553,193.0825 47.5244,193.0825 Q46.1797,193.0825 45.4949,194.1492 Q44.8101,195.2158 44.8101,197.3159 Q44.8101,199.4077 45.4949,200.4744 Q46.1797,201.541 47.5244,201.541 Q48.1553,201.541 48.7488,201.2712 Q49.3423,201.0015 49.9731,200.4204 Z " fill="#000000"/><text fill="#000000" font-family="sans-serif" font-size="12" lengthAdjust="spacing" textLength="76" x="61" y="202.0352">RuntimeError</text><line style="stroke:#000000;stroke-width:1.5;" x1="33" x2="139" y1="213.5" y2="213.5"/><line style="stroke:#000000;stroke-width:1.5;" x1="33" x2="139" y1="221.5" y2="221.5"/><!--MD5=[ef59c8961336a9c238f152b2ab5602c1]
class md.python.dict.MergeDictionaryInterface--><rect codeLine="15" fill="#EBEBEB" filter="url(#f1agi5ziqz151a)" height="60.9551" id="md.python.dict.MergeDictionaryInterface" style="stroke:#000000;stroke-width:1.5;" width="210" x="1293" y="175"/><ellipse cx="1323.75" cy="191" fill="#B4A7E5" rx="11" ry="11" style="stroke:#000000;stroke-width:1.0;"/><path d="M1319.6777,186.7651 L1319.6777,184.6069 L1327.0571,184.6069 L1327.0571,186.7651 L1324.5918,186.7651 L1324.5918,194.8418 L1327.0571,194.8418 L1327.0571,197 L1319.6777,197 L1319.6777,194.8418 L1322.1431,194.8418 L1322.1431,186.7651 Z " fill="#000000"/><text fill="#000000" font-family="sans-serif" font-size="12" font-style="italic" lengthAdjust="spacing" textLength="143" x="1341.25" y="195.5352">MergeDictionaryInterface</text><line style="stroke:#000000;stroke-width:1.5;" x1="1294" x2="1502" y1="207" y2="207"/><line style="stroke:#000000;stroke-width:1.5;" x1="1294" x2="1502" y1="215" y2="215"/><ellipse cx="1304" cy="226" fill="#84BE84" rx="3" ry="3" style="stroke:#038048;stroke-width:1.0;"/><text fill="#000000" font-family="sans-serif" font-size="11" lengthAdjust="spacing" textLength="184" x="1313" y="229.6348">merge(left: dict, right: dict) -&gt; dict</text><!--MD5=[8529f129fad5f4fa69b85514dee00979]
class md.python.dict.DefaultMerge--><rect codeLine="19" fill="#EBEBEB" filter="url(#f1agi5ziqz151a)" height="60.9551" id="md.python.dict.DefaultMerge" style="stroke:#000000;stroke-width:1.5;" width="210" x="1293" y="328.5"/><ellipse cx="1355.25" cy="344.5" fill="#ADD1B2" rx="11" ry="11" style="stroke:#000000;stroke-width:1.0;"/><path d="M1358.2231,350.1431 Q1357.6421,350.4419 1357.0029,350.5913 Q1356.3638,350.7407 1355.6582,350.7407 Q1353.1514,350.7407 1351.8315,349.0889 Q1350.5117,347.437 1350.5117,344.3159 Q1350.5117,341.1865 1351.8315,339.5347 Q1353.1514,337.8828 1355.6582,337.8828 Q1356.3638,337.8828 1357.0112,338.0322 Q1357.6587,338.1816 1358.2231,338.4805 L1358.2231,341.2031 Q1357.5923,340.6221 1356.9988,340.3523 Q1356.4053,340.0825 1355.7744,340.0825 Q1354.4297,340.0825 1353.7449,341.1492 Q1353.0601,342.2158 1353.0601,344.3159 Q1353.0601,346.4077 1353.7449,347.4744 Q1354.4297,348.541 1355.7744,348.541 Q1356.4053,348.541 1356.9988,348.2712 Q1357.5923,348.0015 1358.2231,347.4204 Z " fill="#000000"/><text fill="#000000" font-family="sans-serif" font-size="12" lengthAdjust="spacing" textLength="77" x="1375.75" y="349.0352">DefaultMerge</text><line style="stroke:#000000;stroke-width:1.5;" x1="1294" x2="1502" y1="360.5" y2="360.5"/><line style="stroke:#000000;stroke-width:1.5;" x1="1294" x2="1502" y1="368.5" y2="368.5"/><ellipse cx="1304" cy="379.5" fill="#84BE84" rx="3" ry="3" style="stroke:#038048;stroke-width:1.0;"/><text fill="#000000" font-family="sans-serif" font-size="11" lengthAdjust="spacing" textLength="184" x="1313" y="383.1348">merge(left: dict, right: dict) -&gt; dict</text><!--MD5=[5994534304e650f6e3d788f36c62ae64]
class LoadInterface--><rect codeLine="25" fill="#EBEBEB" filter="url(#f1agi5ziqz151a)" height="73.9102" id="LoadInterface" style="stroke:#000000;stroke-width:1.5;" width="268" x="969" y="322"/><ellipse cx="1059.75" cy="338" fill="#B4A7E5" rx="11" ry="11" style="stroke:#000000;stroke-width:1.0;"/><path d="M1055.6777,333.7651 L1055.6777,331.6069 L1063.0571,331.6069 L1063.0571,333.7651 L1060.5918,333.7651 L1060.5918,341.8418 L1063.0571,341.8418 L1063.0571,344 L1055.6777,344 L1055.6777,341.8418 L1058.1431,341.8418 L1058.1431,333.7651 Z " fill="#000000"/><text fill="#000000" font-family="sans-serif" font-size="12" font-style="italic" lengthAdjust="spacing" textLength="78" x="1080.25" y="342.5352">LoadInterface</text><line style="stroke:#000000;stroke-width:1.5;" x1="970" x2="1236" y1="354" y2="354"/><line style="stroke:#000000;stroke-width:1.5;" x1="970" x2="1236" y1="362" y2="362"/><ellipse cx="980" cy="373" fill="#84BE84" rx="3" ry="3" style="stroke:#038048;stroke-width:1.0;"/><text fill="#000000" font-family="sans-serif" font-size="11" lengthAdjust="spacing" textLength="242" x="989" y="376.6348">load(filename: str) -&gt; Tuple[Any, GraphType]</text><ellipse cx="980" cy="385.9551" fill="#84BE84" rx="3" ry="3" style="stroke:#038048;stroke-width:1.0;"/><text fill="#000000" font-family="sans-serif" font-size="11" lengthAdjust="spacing" textLength="168" x="989" y="389.5898">supports(filename: str) -&gt; bool</text><!--MD5=[5cb8f1d2ef566bedbe3a626b2ca3c9c2]
class DumpInterface--><rect codeLine="30" fill="#EBEBEB" filter="url(#f1agi5ziqz151a)" height="60.9551" id="DumpInterface" style="stroke:#000000;stroke-width:1.5;" width="236" x="207" y="175"/><ellipse cx="278.25" cy="191" fill="#B4A7E5" rx="11" ry="11" style="stroke:#000000;stroke-width:1.0;"/><path d="M274.1777,186.7651 L274.1777,184.6069 L281.5571,184.6069 L281.5571,186.7651 L279.0918,186.7651 L279.0918,194.8418 L281.5571,194.8418 L281.5571,197 L274.1777,197 L274.1777,194.8418 L276.6431,194.8418 L276.6431,186.7651 Z " fill="#000000"/><text fill="#000000" font-family="sans-serif" font-size="12" font-style="italic" lengthAdjust="spacing" textLength="85" x="298.75" y="195.5352">DumpInterface</text><line style="stroke:#000000;stroke-width:1.5;" x1="208" x2="442" y1="207" y2="207"/><line style="stroke:#000000;stroke-width:1.5;" x1="208" x2="442" y1="215" y2="215"/><ellipse cx="218" cy="226" fill="#84BE84" rx="3" ry="3" style="stroke:#038048;stroke-width:1.0;"/><text fill="#000000" font-family="sans-serif" font-size="11" lengthAdjust="spacing" textLength="210" x="227" y="229.6348">dump(filename: str, data: Any) -&gt; None</text><!--MD5=[50a4258529a72ef3a70ba62591d7a31d]
class ImportInterface--><rect codeLine="34" fill="#EBEBEB" filter="url(#f1agi5ziqz151a)" height="60.9551" id="ImportInterface" style="stroke:#000000;stroke-width:1.5;" width="470" x="630" y="41"/><ellipse cx="816.75" cy="57" fill="#B4A7E5" rx="11" ry="11" style="stroke:#000000;stroke-width:1.0;"/><path d="M812.6777,52.7651 L812.6777,50.6069 L820.0571,50.6069 L820.0571,52.7651 L817.5918,52.7651 L817.5918,60.8418 L820.0571,60.8418 L820.0571,63 L812.6777,63 L812.6777,60.8418 L815.1431,60.8418 L815.1431,52.7651 Z " fill="#000000"/><text fill="#000000" font-family="sans-serif" font-size="12" font-style="italic" lengthAdjust="spacing" textLength="88" x="837.25" y="61.5352">ImportInterface</text><line style="stroke:#000000;stroke-width:1.5;" x1="631" x2="1099" y1="73" y2="73"/><line style="stroke:#000000;stroke-width:1.5;" x1="631" x2="1099" y1="81" y2="81"/><ellipse cx="641" cy="92" fill="#84BE84" rx="3" ry="3" style="stroke:#038048;stroke-width:1.0;"/><text fill="#000000" font-family="sans-serif" font-size="11" lengthAdjust="spacing" textLength="444" x="650" y="95.6348">import_(content: dict, resource_list: List[Tuple[str, str]]) -&gt; Tuple[dict, GraphType]</text><!--MD5=[95cb8039f611ac55491fe78ea5e7d2ac]
class PersistenceExceptionInterface--><rect codeLine="38" fill="#EBEBEB" filter="url(#f1agi5ziqz151a)" height="48" id="PersistenceExceptionInterface" style="stroke:#000000;stroke-width:1.5;" width="203" x="478.5" y="181.5"/><ellipse cx="493.5" cy="197.5" fill="#B4A7E5" rx="11" ry="11" style="stroke:#000000;stroke-width:1.0;"/><path d="M489.4277,193.2651 L489.4277,191.1069 L496.8071,191.1069 L496.8071,193.2651 L494.3418,193.2651 L494.3418,201.3418 L496.8071,201.3418 L496.8071,203.5 L489.4277,203.5 L489.4277,201.3418 L491.8931,201.3418 L491.8931,193.2651 Z " fill="#000000"/><text fill="#000000" font-family="sans-serif" font-size="12" font-style="italic" lengthAdjust="spacing" textLength="171" x="507.5" y="202.0352">PersistenceExceptionInterface</text><line style="stroke:#000000;stroke-width:1.5;" x1="479.5" x2="680.5" y1="213.5" y2="213.5"/><line style="stroke:#000000;stroke-width:1.5;" x1="479.5" x2="680.5" y1="221.5" y2="221.5"/><!--MD5=[8b4b7841f706f8a2e7d5a99f7e1025c3]
class LoadException--><rect codeLine="39" fill="#EBEBEB" filter="url(#f1agi5ziqz151a)" height="94.8652" id="LoadException" style="stroke:#000000;stroke-width:1.5;" width="337" x="474.5" y="469"/><ellipse cx="596.75" cy="485" fill="#ADD1B2" rx="11" ry="11" style="stroke:#000000;stroke-width:1.0;"/><path d="M599.7231,490.6431 Q599.1421,490.9419 598.5029,491.0913 Q597.8638,491.2407 597.1582,491.2407 Q594.6514,491.2407 593.3315,489.5889 Q592.0117,487.937 592.0117,484.8159 Q592.0117,481.6865 593.3315,480.0347 Q594.6514,478.3828 597.1582,478.3828 Q597.8638,478.3828 598.5112,478.5322 Q599.1587,478.6816 599.7231,478.9805 L599.7231,481.7031 Q599.0923,481.1221 598.4988,480.8523 Q597.9053,480.5825 597.2744,480.5825 Q595.9297,480.5825 595.2449,481.6492 Q594.5601,482.7158 594.5601,484.8159 Q594.5601,486.9077 595.2449,487.9744 Q595.9297,489.041 597.2744,489.041 Q597.9053,489.041 598.4988,488.7712 Q599.0923,488.5015 599.7231,487.9204 Z " fill="#000000"/><text fill="#000000" font-family="sans-serif" font-size="12" lengthAdjust="spacing" textLength="84" x="617.25" y="489.5352">LoadException</text><line style="stroke:#000000;stroke-width:1.5;" x1="475.5" x2="810.5" y1="501" y2="501"/><ellipse cx="485.5" cy="512" rx="3" ry="3" style="stroke:#038048;stroke-width:1.0;fill:none;"/><text fill="#000000" font-family="sans-serif" font-size="11" lengthAdjust="spacing" textLength="45" x="494.5" y="515.6348">path: str</text><line style="stroke:#000000;stroke-width:1.0;" x1="475.5" x2="810.5" y1="521.9551" y2="521.9551"/><ellipse cx="485.5" cy="532.9551" fill="#84BE84" rx="3" ry="3" style="stroke:#038048;stroke-width:1.0;"/><text fill="#000000" font-family="sans-serif" font-size="11" lengthAdjust="spacing" textLength="275" x="494.5" y="536.5898">__init__(code: int=0, path: str=None, *, **) -&gt; None</text><line style="stroke:#000000;stroke-width:1.0;" x1="475.5" x2="810.5" y1="542.9102" y2="542.9102"/><ellipse cx="485.5" cy="553.9102" fill="#84BE84" rx="3" ry="3" style="stroke:#038048;stroke-width:1.0;"/><text fill="#000000" font-family="sans-serif" font-size="11" lengthAdjust="spacing" text-decoration="underline" textLength="311" x="494.5" y="557.5449">as_import_error(path: str=None, *, **) -&gt; 'LoadException'</text><!--MD5=[cb266278be7375ae48adbf8cdac28c3b]
class DumpException--><rect codeLine="47" fill="#EBEBEB" filter="url(#f1agi5ziqz151a)" height="73.9102" id="DumpException" style="stroke:#000000;stroke-width:1.5;" width="301" x="196.5" y="322"/><ellipse cx="297.25" cy="338" fill="#ADD1B2" rx="11" ry="11" style="stroke:#000000;stroke-width:1.0;"/><path d="M300.2231,343.6431 Q299.6421,343.9419 299.0029,344.0913 Q298.3638,344.2407 297.6582,344.2407 Q295.1514,344.2407 293.8315,342.5889 Q292.5117,340.937 292.5117,337.8159 Q292.5117,334.6865 293.8315,333.0347 Q295.1514,331.3828 297.6582,331.3828 Q298.3638,331.3828 299.0112,331.5322 Q299.6587,331.6816 300.2231,331.9805 L300.2231,334.7031 Q299.5923,334.1221 298.9988,333.8523 Q298.4053,333.5825 297.7744,333.5825 Q296.4297,333.5825 295.7449,334.6492 Q295.0601,335.7158 295.0601,337.8159 Q295.0601,339.9077 295.7449,340.9744 Q296.4297,342.041 297.7744,342.041 Q298.4053,342.041 298.9988,341.7712 Q299.5923,341.5015 300.2231,340.9204 Z " fill="#000000"/><text fill="#000000" font-family="sans-serif" font-size="12" lengthAdjust="spacing" textLength="91" x="317.75" y="342.5352">DumpException</text><line style="stroke:#000000;stroke-width:1.5;" x1="197.5" x2="496.5" y1="354" y2="354"/><ellipse cx="207.5" cy="365" rx="3" ry="3" style="stroke:#038048;stroke-width:1.0;fill:none;"/><text fill="#000000" font-family="sans-serif" font-size="11" lengthAdjust="spacing" textLength="45" x="216.5" y="368.6348">path: str</text><line style="stroke:#000000;stroke-width:1.0;" x1="197.5" x2="496.5" y1="374.9551" y2="374.9551"/><ellipse cx="207.5" cy="385.9551" fill="#84BE84" rx="3" ry="3" style="stroke:#038048;stroke-width:1.0;"/><text fill="#000000" font-family="sans-serif" font-size="11" lengthAdjust="spacing" textLength="275" x="216.5" y="389.5898">__init__(code: int=0, path: str=None, *, **) -&gt; None</text><!--MD5=[433b71eaa86f56e79b9510f9ab21b4f8]
class ImportException--><rect codeLine="53" fill="#EBEBEB" filter="url(#f1agi5ziqz151a)" height="99.8203" id="ImportException" style="stroke:#000000;stroke-width:1.5;" width="363" x="570.5" y="309"/><ellipse cx="700.75" cy="325" fill="#ADD1B2" rx="11" ry="11" style="stroke:#000000;stroke-width:1.0;"/><path d="M703.7231,330.6431 Q703.1421,330.9419 702.5029,331.0913 Q701.8638,331.2407 701.1582,331.2407 Q698.6514,331.2407 697.3315,329.5889 Q696.0117,327.937 696.0117,324.8159 Q696.0117,321.6865 697.3315,320.0347 Q698.6514,318.3828 701.1582,318.3828 Q701.8638,318.3828 702.5112,318.5322 Q703.1587,318.6816 703.7231,318.9805 L703.7231,321.7031 Q703.0923,321.1221 702.4988,320.8523 Q701.9053,320.5825 701.2744,320.5825 Q699.9297,320.5825 699.2449,321.6492 Q698.5601,322.7158 698.5601,324.8159 Q698.5601,326.9077 699.2449,327.9744 Q699.9297,329.041 701.2744,329.041 Q701.9053,329.041 702.4988,328.7712 Q703.0923,328.5015 703.7231,327.9204 Z " fill="#000000"/><text fill="#000000" font-family="sans-serif" font-size="12" lengthAdjust="spacing" textLength="94" x="721.25" y="329.5352">ImportException</text><line style="stroke:#000000;stroke-width:1.5;" x1="571.5" x2="932.5" y1="341" y2="341"/><ellipse cx="581.5" cy="352" fill="#84BE84" rx="3" ry="3" style="stroke:#038048;stroke-width:1.0;"/><text fill="#000000" font-family="sans-serif" font-size="11" lengthAdjust="spacing" textLength="275" x="590.5" y="355.6348">__init__(code: int=0, path: str=None, *, **) -&gt; None</text><line style="stroke:#000000;stroke-width:1.0;" x1="571.5" x2="932.5" y1="361.9551" y2="361.9551"/><ellipse cx="581.5" cy="372.9551" fill="#84BE84" rx="3" ry="3" style="stroke:#038048;stroke-width:1.0;"/><text fill="#000000" font-family="sans-serif" font-size="11" lengthAdjust="spacing" text-decoration="underline" textLength="307" x="590.5" y="376.5898">as_not_exists(path: str=None, *, **) -&gt; 'ImportException'</text><ellipse cx="581.5" cy="385.9102" fill="#84BE84" rx="3" ry="3" style="stroke:#038048;stroke-width:1.0;"/><text fill="#000000" font-family="sans-serif" font-size="11" lengthAdjust="spacing" text-decoration="underline" textLength="285" x="590.5" y="389.5449">as_merge(path: str=None, *, **) -&gt; 'ImportException'</text><ellipse cx="581.5" cy="398.8652" fill="#84BE84" rx="3" ry="3" style="stroke:#038048;stroke-width:1.0;"/><text fill="#000000" font-family="sans-serif" font-size="11" lengthAdjust="spacing" text-decoration="underline" textLength="337" x="590.5" y="402.5">as_recursion_error(path: str=None, *, **) -&gt; 'ImportException'</text><!--MD5=[819e718cfadd8c6c16feafb54d2da6f1]
class DefaultImport--><rect codeLine="61" fill="#EBEBEB" filter="url(#f1agi5ziqz151a)" height="86.8652" id="DefaultImport" style="stroke:#000000;stroke-width:1.5;" width="471" x="765.5" y="162"/><ellipse cx="957.25" cy="178" fill="#ADD1B2" rx="11" ry="11" style="stroke:#000000;stroke-width:1.0;"/><path d="M960.2231,183.6431 Q959.6421,183.9419 959.0029,184.0913 Q958.3638,184.2407 957.6582,184.2407 Q955.1514,184.2407 953.8315,182.5889 Q952.5117,180.937 952.5117,177.8159 Q952.5117,174.6865 953.8315,173.0347 Q955.1514,171.3828 957.6582,171.3828 Q958.3638,171.3828 959.0112,171.5322 Q959.6587,171.6816 960.2231,171.9805 L960.2231,174.7031 Q959.5923,174.1221 958.9988,173.8523 Q958.4053,173.5825 957.7744,173.5825 Q956.4297,173.5825 955.7449,174.6492 Q955.0601,175.7158 955.0601,177.8159 Q955.0601,179.9077 955.7449,180.9744 Q956.4297,182.041 957.7744,182.041 Q958.4053,182.041 958.9988,181.7712 Q959.5923,181.5015 960.2231,180.9204 Z " fill="#000000"/><text fill="#000000" font-family="sans-serif" font-size="12" lengthAdjust="spacing" textLength="79" x="977.75" y="182.5352">DefaultImport</text><line style="stroke:#000000;stroke-width:1.5;" x1="766.5" x2="1235.5" y1="194" y2="194"/><rect fill="none" height="6" style="stroke:#C82930;stroke-width:1.0;" width="6" x="773.5" y="202"/><text fill="#000000" font-family="sans-serif" font-size="11" lengthAdjust="spacing" textLength="102" x="785.5" y="208.6348">load: LoadInterface</text><rect fill="none" height="6" style="stroke:#C82930;stroke-width:1.0;" width="6" x="773.5" y="214.9551"/><text fill="#000000" font-family="sans-serif" font-size="11" lengthAdjust="spacing" textLength="319" x="785.5" y="221.5898">merge_dictionary: md.python.dict.MergeDictionaryInterface</text><line style="stroke:#000000;stroke-width:1.0;" x1="766.5" x2="1235.5" y1="227.9102" y2="227.9102"/><ellipse cx="776.5" cy="238.9102" fill="#84BE84" rx="3" ry="3" style="stroke:#038048;stroke-width:1.0;"/><text fill="#000000" font-family="sans-serif" font-size="11" lengthAdjust="spacing" textLength="445" x="785.5" y="242.5449">import_(content: dict, resource_list: List[Tuple[str, str]]) -&gt; Tuple[Dict, GraphType]</text><!--MD5=[47fcf84c7191adbef3f9dbe108ac3c73]
reverse link md.python.dict.MergeDictionaryInterface to md.python.dict.DefaultMerge--><path d="M1398,256.19 C1398,256.19 1398,328.36 1398,328.36 " fill="none" id="md.python.dict.MergeDictionaryInterface-backto-md.python.dict.DefaultMerge" style="stroke:#333333;stroke-width:1.0;stroke-dasharray:7.0,7.0;"/><polygon fill="none" points="1391,256.19,1398,236.19,1405,256.19,1391,256.19" style="stroke:#333333;stroke-width:1.0;"/><!--MD5=[9f2cf31380fc40a4d6e0952b084aa381]
reverse link builtins.RuntimeError to LoadException--><path d="M68,249.68 C68,249.68 68,517 68,517 C68,517 304.7,517 474.37,517 " fill="none" id="builtins.RuntimeError-backto-LoadException" style="stroke:#333333;stroke-width:1.0;"/><polygon fill="none" points="61,249.68,68,229.68,75,249.68,61,249.68" style="stroke:#333333;stroke-width:1.0;"/><!--MD5=[2d7ad3d79b1a2788a3d7dcee6fb9cd68]
reverse link PersistenceExceptionInterface to LoadException--><path d="M534,249.64 C534,249.64 534,468.97 534,468.97 " fill="none" id="PersistenceExceptionInterface-backto-LoadException" style="stroke:#333333;stroke-width:1.0;stroke-dasharray:7.0,7.0;"/><polygon fill="none" points="527,249.64,534,229.64,541,249.64,527,249.64" style="stroke:#333333;stroke-width:1.0;"/><!--MD5=[daaeb2e1ebfa8831ec89ae3c59ec4647]
reverse link builtins.RuntimeError to DumpException--><path d="M160.15,206 C160.15,206 201.75,206 201.75,206 C201.75,206 201.75,276.68 201.75,321.96 " fill="none" id="builtins.RuntimeError-backto-DumpException" style="stroke:#333333;stroke-width:1.0;"/><polygon fill="none" points="160.15,213,140.15,206,160.15,199,160.15,213" style="stroke:#333333;stroke-width:1.0;"/><!--MD5=[266b33d60efbcdd2d818c6104023c5a6]
reverse link PersistenceExceptionInterface to DumpException--><path d="M488,249.82 C488,249.82 488,321.91 488,321.91 " fill="none" id="PersistenceExceptionInterface-backto-DumpException" style="stroke:#333333;stroke-width:1.0;stroke-dasharray:7.0,7.0;"/><polygon fill="none" points="481,249.82,488,229.82,495,249.82,481,249.82" style="stroke:#333333;stroke-width:1.0;"/><!--MD5=[3c04f8a547ca510a31993f04ffca61c9]
reverse link builtins.RuntimeError to ImportException--><path d="M104,249.75 C104,249.75 104,316 104,316 C104,316 378.52,316 570.2,316 " fill="none" id="builtins.RuntimeError-backto-ImportException" style="stroke:#333333;stroke-width:1.0;"/><polygon fill="none" points="97,249.75,104,229.75,111,249.75,97,249.75" style="stroke:#333333;stroke-width:1.0;"/><!--MD5=[fc0ce36d2bd87330c1005aff1dd186e4]
reverse link PersistenceExceptionInterface to ImportException--><path d="M626,249.82 C626,249.82 626,308.74 626,308.74 " fill="none" id="PersistenceExceptionInterface-backto-ImportException" style="stroke:#333333;stroke-width:1.0;stroke-dasharray:7.0,7.0;"/><polygon fill="none" points="619,249.82,626,229.82,633,249.82,619,249.82" style="stroke:#333333;stroke-width:1.0;"/><!--MD5=[3f4792dbaa7d46822aa5c464c5a9ff7c]
reverse link ImportInterface to DefaultImport--><path d="M932.75,122.24 C932.75,122.24 932.75,161.95 932.75,161.95 " fill="none" id="ImportInterface-backto-DefaultImport" style="stroke:#333333;stroke-width:1.0;stroke-dasharray:7.0,7.0;"/><polygon fill="none" points="925.75,122.24,932.75,102.24,939.75,122.24,925.75,122.24" style="stroke:#333333;stroke-width:1.0;"/><!--MD5=[20e5d611a19b912f7e92f918dc1ea8a2]
link DefaultImport to LoadInterface--><path codeLine="68" d="M1102.75,261.08 C1102.75,261.08 1102.75,308.82 1102.75,308.82 " fill="none" id="DefaultImport-LoadInterface" style="stroke:#333333;stroke-width:1.0;"/><polygon fill="#333333" points="1102.75,321.82,1106.75,312.82,1102.75,316.82,1098.75,312.82,1102.75,321.82" style="stroke:#333333;stroke-width:1.0;"/><line style="stroke:#333333;stroke-width:1.0;" x1="1102.75" x2="1102.75" y1="316.82" y2="308.82"/><polygon fill="#333333" points="1102.75,249.08,1098.75,255.08,1102.75,261.08,1106.75,255.08,1102.75,249.08" style="stroke:#333333;stroke-width:1.0;"/><!--MD5=[dc80583ce3ab52c9ef5870f43cdb1e06]
link DefaultImport to md.python.dict.MergeDictionaryInterface--><path codeLine="69" d="M1248.52,206 C1248.52,206 1279.85,206 1279.85,206 " fill="none" id="DefaultImport-md.python.dict.MergeDictionaryInterface" style="stroke:#333333;stroke-width:1.0;"/><polygon fill="#333333" points="1292.85,206,1283.85,202,1287.85,206,1283.85,210,1292.85,206" style="stroke:#333333;stroke-width:1.0;"/><line style="stroke:#333333;stroke-width:1.0;" x1="1287.85" x2="1279.85" y1="206" y2="206"/><polygon fill="#333333" points="1236.52,206,1242.52,210,1248.52,206,1242.52,202,1236.52,206" style="stroke:#333333;stroke-width:1.0;"/><!--MD5=[cae2b7506dc00ab28ffcacaa8260360c]
link LoadInterface to LoadException--><path codeLine="71" d="M1103,396.04 C1103,442.74 1103,517 1103,517 C1103,517 942.96,517 811.68,517 " fill="none" id="LoadInterface-LoadException" style="stroke:#333333;stroke-width:1.0;stroke-dasharray:7.0,7.0;"/><polygon fill="#000000" points="966.2022,510.5726,975.6828,509.8184,973.4289,504.3898,966.2022,510.5726" style="stroke:#000000;stroke-width:1.0;"/><text fill="#000000" font-family="sans-serif" font-size="13" lengthAdjust="spacing" textLength="37" x="979.82" y="513.5684">raises</text><!--MD5=[ecc5f3bd79603ec371a64f4ad4e3f2df]
link DumpInterface to DumpException--><path codeLine="72" d="M325,236.19 C325,260.87 325,295.62 325,321.86 " fill="none" id="DumpInterface-DumpException" style="stroke:#333333;stroke-width:1.0;stroke-dasharray:7.0,7.0;"/><polygon fill="#000000" points="278,275.6753,280.9389,266.6302,275.0611,266.6302,278,275.6753" style="stroke:#000000;stroke-width:1.0;"/><text fill="#000000" font-family="sans-serif" font-size="13" lengthAdjust="spacing" textLength="37" x="287" y="275.5884">raises</text><!--MD5=[bea104cba0ce557db19a999c3403bf5a]
link ImportInterface to ImportException--><path codeLine="73" d="M723.5,102.27 C723.5,151.66 723.5,249.14 723.5,308.75 " fill="none" id="ImportInterface-ImportException" style="stroke:#333333;stroke-width:1.0;stroke-dasharray:7.0,7.0;"/><polygon fill="#000000" points="715.5,219.1653,718.4389,210.1202,712.5611,210.1202,715.5,219.1653" style="stroke:#000000;stroke-width:1.0;"/><text fill="#000000" font-family="sans-serif" font-size="13" lengthAdjust="spacing" textLength="37" x="724.5" y="219.0784">raises</text><!--MD5=[3429b927cdeed4e0befdce08661ab7ee]
link ImportException to LoadException--><path codeLine="74" d="M691,409.27 C691,428.35 691,450.02 691,468.85 " fill="none" id="ImportException-LoadException" style="stroke:#333333;stroke-width:1.0;stroke-dasharray:7.0,7.0;"/><polygon fill="#000000" points="648,435.7153,650.9389,426.6702,645.0611,426.6702,648,435.7153" style="stroke:#000000;stroke-width:1.0;"/><text fill="#000000" font-family="sans-serif" font-size="13" lengthAdjust="spacing" textLength="33" x="657" y="435.6284">leads</text><!--MD5=[3ee9906d67bd86adae60a4d79804c9aa]
@startuml

skinparam class {
  BackgroundColor #ebebeb
  ArrowColor      #333
  BorderColor     #000
}

skinparam lineType ortho

package builtins {
  class builtins.RuntimeError {}
}

package md.python.dict {
  interface md.python.dict.MergeDictionaryInterface {
    + merge(left: dict, right: dict) -> dict
  }

  class md.python.dict.DefaultMerge implements md.python.dict.MergeDictionaryInterface {
    + merge(left: dict, right: dict) -> dict
  }
}

package md.persistence {
  interface LoadInterface {
    + load(filename: str) -> Tuple[Any, GraphType]
    + supports(filename: str) -> bool
  }

  interface DumpInterface {
    + dump(filename: str, data: Any) -> None
  }

  interface ImportInterface {
    + import_(content: dict, resource_list: List[Tuple[str, str]]) -> Tuple[dict, GraphType]
  }

  interface PersistenceExceptionInterface {}
  class LoadException extends builtins.RuntimeError implements PersistenceExceptionInterface {
    + path: str
    - - -
    + __init__(code: int=0, path: str=None, *, **) -> None
    - - -
    + {static} as_import_error(path: str=None, *, **) -> 'LoadException'
  }

  class DumpException extends builtins.RuntimeError implements PersistenceExceptionInterface {
    + path: str
    - - -
    + __init__(code: int=0, path: str=None, *, **) -> None
  }

  class ImportException extends builtins.RuntimeError implements PersistenceExceptionInterface {
    + __init__(code: int=0, path: str=None, *, **) -> None
    - - -
    + {static} as_not_exists(path: str=None, *, **) -> 'ImportException'
    + {static} as_merge(path: str=None, *, **) -> 'ImportException'
    + {static} as_recursion_error(path: str=None, *, **) -> 'ImportException'
  }

  class DefaultImport implements ImportInterface {
    - load: LoadInterface
    - merge_dictionary: md.python.dict.MergeDictionaryInterface
    - - -
    + import_(content: dict, resource_list: List[Tuple[str, str]]) -> Tuple[Dict, GraphType]
  }

  DefaultImport *- -> LoadInterface
  DefaultImport *-> md.python.dict.MergeDictionaryInterface

  LoadInterface .. LoadException : "raises >"
  DumpInterface .. DumpException : "raises >"
  ImportInterface .. ImportException : "raises >"
  ImportException .. LoadException : "leads >"
}

@enduml

PlantUML version 1.2022.0(Tue Jan 11 19:16:42 MSK 2022)
(GPL source distribution)
Java Runtime: OpenJDK Runtime Environment
JVM: OpenJDK 64-Bit Server VM
Default Encoding: UTF-8
Language: ru
Country: RU
--></g></svg>